<?xml version="1.0" encoding="UTF-8"?>
<!DOCTYPE svg PUBLIC "-//W3C//DTD SVG 1.0//EN" "http://www.w3.org/TR/2001/REC-SVG-20010904/DTD/svg10.dtd">
<!-- Creator: CorelDRAW 2021.5 -->
<svg xmlns="http://www.w3.org/2000/svg" xml:space="preserve" width="1728px" height="1730px" version="1.0" style="shape-rendering:geometricPrecision; text-rendering:geometricPrecision; image-rendering:optimizeQuality; fill-rule:evenodd; clip-rule:evenodd"
viewBox="0 0 1728 1729.83"
 xmlns:xlink="http://www.w3.org/1999/xlink"
 xmlns:xodm="http://www.corel.com/coreldraw/odm/2003">
 <defs>
  <style type="text/css">
   <![CDATA[
    .fil0 {fill:white}
    .fil2 {fill:#0079A2}
    .fil3 {fill:#0097C4}
    .fil1 {fill:#373535}
    .fil6 {fill:#EE3338}
    .fil5 {fill:white;fill-rule:nonzero}
    .fil4 {fill:#97999C;fill-rule:nonzero}
   ]]>
  </style>
 </defs>
 <g id="Layer_x0020_1">
  <metadata id="CorelCorpID_0Corel-Layer"/>
  <circle class="fil0" cx="864" cy="864.91" r="662.14"/>
  <path class="fil1" d="M1140.49 1074.23l0 -817.62c10.81,4.93 21.46,10.15 31.95,15.62l0 802 18.58 0 0 65.02 -34.56 37.16 -34.55 -37.16 0 -65.02 18.58 0z"/>
  <g id="_105553476432416">
   <path class="fil2" d="M1682.65 824.28l0 322.06 -272.59 389.3 -1.28 1.04c-154.52,125.48 -345.73,193.15 -544.78,193.15 -199.05,0 -390.26,-67.67 -544.78,-193.15l-1.28 -1.04 -272.59 -389.3 0 -322.06 -45.35 0 0.76 -12.53c27.66,-455.88 406.4,-811.75 863.24,-811.75 456.84,0 835.58,355.87 863.24,811.75l0.76 12.53 -45.35 0zm-818.65 696.86c362.43,0 656.23,-293.8 656.23,-656.23 0,-362.43 -293.8,-656.23 -656.23,-656.23 -362.43,0 -656.23,293.8 -656.23,656.23 0,362.43 293.8,656.23 656.23,656.23z"/>
  </g>
  <path class="fil3" d="M864 11.81c-453.54,0 -824.35,353.93 -851.45,800.66l44.61 0 0 330.15 269.5 384.89c146.68,119.11 333.66,190.51 537.34,190.51 203.68,0 390.66,-71.4 537.34,-190.51l269.5 -384.89 0 -330.15 44.61 0c-27.1,-446.73 -397.91,-800.66 -851.45,-800.66zm0 1521.15l0 0c-368.95,0 -668.04,-299.1 -668.04,-668.05 0,-368.94 299.09,-668.04 668.04,-668.04l0 0 0 0c368.95,0 668.04,299.1 668.04,668.04 0,368.95 -299.09,668.05 -668.04,668.05l0 0z"/>
  <path class="fil1" d="M1358.8 667.95l-1.28 11.93 -21.73 0 0 17.74 18.93 0 0 7.67 -416.53 25.59 -74.19 85.44 -74.19 -85.44 -416.53 -25.59 0 -7.67 18.93 0 0 -17.74 -21.73 0 -1.28 -11.93 989.6 0zm-880.28 29.67l19.17 0 0 -17.74 -19.17 0 0 17.74zm217.72 -17.74l13.32 0 0 17.74 -13.32 0 0 -17.74zm-108.73 17.74l15.98 0 0 -17.74 -15.98 0 0 17.74zm228.34 0l-11.1 0 0 -17.74 11.1 0 0 17.74zm433.63 0l-19.17 0 0 -17.74 19.17 0 0 17.74zm-217.72 -17.74l-13.32 0 0 17.74 13.32 0 0 -17.74zm108.73 17.74l-15.98 0 0 -17.74 15.98 0 0 17.74zm-228.34 0l11.1 0 0 -17.74 -11.1 0 0 17.74z"/>
  <path class="fil4" d="M643.29 411.72l0 80.6c0,9.74 -3.96,16.7 -11.84,20.88 -7.88,4.05 -21.02,6.12 -39.33,6.12 -18.33,0 -31.46,-2.07 -39.35,-6.12 -7.86,-4.18 -11.82,-11.14 -11.82,-20.88l0 -80.6 43.54 0 0 86.52c0,1.86 0.64,3.09 1.78,4.01 1.22,0.77 3.17,1.13 5.85,1.13 2.69,0 4.59,-0.36 5.69,-1.13 1.05,-0.82 1.65,-2.11 1.65,-4.01l0 -86.52 43.83 0 0 0z"/>
  <path class="fil4" d="M700.77 473.42l16.22 0 -4.95 -32.06c-0.33,-1.82 -0.5,-5.12 -0.7,-9.75 -0.08,-2.06 -0.15,-3.62 -0.15,-4.78l-1.69 0c-0.35,4.03 -0.71,7.25 -1,9.59 -0.28,2.48 -0.56,4.03 -0.78,4.81l-6.95 32.19 0 0 0 0zm-49.06 43.55l0 0 35.09 -105.25 56.06 0 25.88 105.25 -45.4 0 -4.28 -28.07 -21.73 0 -5.64 28.07 -39.98 0 0 0z"/>
  <path class="fil4" d="M776.59 436.63c0,-9.8 3.95,-16.79 11.84,-20.93 7.84,-4.19 20.9,-6.25 39,-6.25 18.22,0 31.33,2.06 39.31,6.19 7.9,4.11 11.87,11.12 11.87,20.99l0 11.68 -43.55 0 0 -18.75c0,-1.79 -0.57,-3.1 -1.71,-3.88 -1.12,-0.73 -3.1,-1.15 -5.92,-1.15 -2.65,0 -4.55,0.42 -5.66,1.15 -1.04,0.78 -1.64,2.09 -1.64,3.88l0 68.68c0,1.9 0.6,3.18 1.73,4.01 1.13,0.77 3,1.13 5.57,1.13 2.82,0 4.79,-0.36 5.92,-1.13 1.14,-0.91 1.71,-2.15 1.71,-4.01l0 -21.15 43.55 0 0 15.23c0,9.74 -3.97,16.7 -11.82,20.88 -7.87,4.05 -21,6.12 -39.36,6.12 -18.22,0 -31.22,-2.01 -39.11,-6.12 -7.81,-4.04 -11.73,-11 -11.73,-20.88l0 -55.69 0 0 0 0z"/>
  <polygon class="fil4" points="890.25,516.97 890.25,411.72 933.76,411.72 933.76,450.78 947.49,450.78 947.49,411.72 991.34,411.72 991.34,516.97 947.49,516.97 947.49,466.1 933.76,466.1 933.76,516.97 "/>
  <polygon class="fil5" points="205.01,600.43 120.85,562.39 144.16,510.84 162.64,519.19 149.44,548.38 164.04,554.98 176.49,527.44 194.5,535.58 182.04,563.12 215.12,578.07 "/>
  <path id="_1" class="fil5" d="M215.61 500.25l12.49 -21.72 -31.13 -7.02c-0.91,-0.23 -2.44,-0.67 -4.49,-1.25 -2.05,-0.58 -4.61,-1.31 -7.8,-2.25 1.65,1.55 3.23,3.2 4.76,4.68 1.54,1.48 2.96,2.89 4.38,4.3l21.79 23.26zm12.32 47.76l-64.16 -73.69 15.71 -27.32 95.97 18.37 -12.49 21.73 -16.65 -4.21 -17.84 31.01 11.95 12.39 -12.49 21.72z"/>
  <path id="_2" class="fil5" d="M251.44 352.86l21.63 17c-5.12,0.24 -9.41,1.31 -12.99,2.93 -3.49,1.53 -6.52,3.91 -8.91,6.96 -4.47,5.69 -6.13,11.77 -5.07,18.36 1.25,6.57 4.79,12.31 11.09,17.25 5.78,4.55 12.1,6.56 18.75,6.03 6.63,-0.7 12.15,-3.75 16.46,-9.24 2.39,-3.04 4,-6.55 4.65,-10.31 0.84,-3.78 0.76,-8.27 -0.22,-13.31l21.64 17c-0.95,4.35 -2.23,8.27 -3.89,12.06 -1.77,3.71 -3.83,7.17 -6.31,10.32 -3.11,3.96 -6.49,7.22 -10.04,9.85 -3.55,2.63 -7.36,4.56 -11.53,5.89 -7.88,2.51 -15.72,3.08 -23.44,1.62 -7.82,-1.55 -15.14,-4.99 -22.04,-10.42 -5.59,-4.39 -9.85,-9.22 -12.98,-14.63 -3.21,-5.32 -5.12,-11.26 -6.01,-17.87 -0.84,-6.24 -0.44,-12.18 1.18,-17.8 1.71,-5.72 4.54,-11.21 8.69,-16.5 2.48,-3.14 5.36,-5.97 8.54,-8.56 3.29,-2.51 6.8,-4.68 10.8,-6.63z"/>
  <path id="_3" class="fil5" d="M263.16 333.43l17.29 -18.14 32.53 31.02c4.77,4.54 8.32,7.75 10.64,9.43 2.33,1.68 4.46,3 6.4,3.77 2.39,0.86 4.86,0.89 7.4,0.1 2.53,-0.97 4.96,-2.58 7.37,-5.11 2.41,-2.52 3.9,-5.02 4.75,-7.6 0.67,-2.58 0.52,-5.04 -0.45,-7.39 -0.87,-1.9 -2.2,-4.06 -4.07,-6.21 -1.79,-2.24 -5.16,-5.63 -9.93,-10.18l-4.58 -4.36 -27.95 -26.65 17.29 -18.14 35.33 33.69c7.39,7.04 12.27,12.59 15.02,16.82 2.57,4.23 4.14,8.58 4.6,12.95 0.58,4.83 -0.4,9.97 -2.92,15.24 -2.34,5.26 -6.32,10.75 -11.76,16.45 -5.44,5.7 -10.73,9.94 -15.87,12.53 -5.14,2.77 -10.14,3.9 -15.08,3.65 -4.39,-0.26 -8.81,-1.62 -13.16,-3.98 -4.35,-2.55 -10.13,-7.16 -17.51,-14.2l-6.92 -6.6 -28.42 -27.09z"/>
  <polygon id="_4" class="fil5" points="401.93,325.93 344.87,253.31 364.67,237.75 408.41,293.4 432.99,274.09 446.32,291.05 "/>
  <polygon id="_5" class="fil5" points="463.55,279.04 425.48,219.67 408.09,230.82 396.31,212.44 452.3,176.54 464.09,194.92 446.69,206.07 484.75,265.44 "/>
  <path id="_6" class="fil5" d="M513.99 208.39l22.31 -11.42 -22.29 -22.84c-0.64,-0.68 -1.69,-1.89 -3.1,-3.49 -1.4,-1.61 -3.15,-3.61 -5.31,-6.13 0.54,2.19 0.96,4.44 1.45,6.51 0.48,2.08 0.9,4.04 1.33,6l5.61 31.37zm-15.66 46.77l-13.7 -96.75 28.05 -14.36 70.5 67.65 -22.31 11.43 -11.67 -12.6 -31.85 16.31 3.28 16.9 -22.3 11.42z"/>
  <path id="_7" class="fil5" d="M591.41 208.19l-29.6 -87.48 18.23 -6.17c13.58,-4.59 23.45,-7.25 29.54,-7.81 6.04,-0.68 11.68,-0.13 16.95,1.35 6.83,2.05 12.77,5.5 17.61,10.54 4.89,5.17 8.68,11.52 11.28,19.23 2.61,7.71 3.46,15.06 2.72,22.13 -0.79,6.95 -3.37,13.41 -7.6,19.07 -3.16,4.34 -7.35,8.08 -12.28,11.24 -4.97,3.05 -13.21,6.52 -24.59,10.37l-4.03 1.36 -18.23 6.17zm16.99 -27.56l4.03 -1.37c9.3,-3.15 15.49,-7.42 18.49,-12.66 2.96,-5.37 3.09,-12.23 0.28,-20.55 -2.82,-8.32 -7.09,-13.69 -12.7,-16.16 -5.6,-2.47 -13.12,-2.11 -22.42,1.04l-4.03 1.37 16.35 48.33z"/>
  <path id="_8" class="fil5" d="M724.83 167.58l-11.64 -91.62 19.09 -2.43c14.22,-1.8 24.43,-2.45 30.5,-1.79 6.06,0.53 11.47,2.19 16.35,4.69 6.29,3.37 11.42,7.93 15.17,13.83 3.76,6.03 6.21,13.01 7.24,21.09 1.02,8.07 0.4,15.44 -1.74,22.22 -2.15,6.65 -5.96,12.48 -11.22,17.18 -3.97,3.63 -8.82,6.46 -14.28,8.59 -5.47,1.99 -14.23,3.76 -26.15,5.27l-4.23 0.54 -19.09 2.43zm22.12 -23.65l4.23 -0.54c9.74,-1.23 16.66,-4.2 20.64,-8.74 3.96,-4.67 5.45,-11.37 4.34,-20.08 -1.1,-8.71 -4.22,-14.83 -9.23,-18.36 -5,-3.53 -12.44,-4.67 -22.18,-3.43l-4.23 0.54 6.43 50.61z"/>
  <polygon id="_9" class="fil5" points="823.15,156.48 820.82,64.16 877.37,62.73 877.89,83 845.86,83.81 846.27,99.82 876.49,99.06 876.98,118.81 846.77,119.58 847.16,135.2 879.19,134.39 879.71,155.05 "/>
  <polygon id="_10" class="fil5" points="937.31,159.21 948.95,67.59 974.19,70.8 962.55,162.42 "/>
  <path id="_11" class="fil5" d="M982.81 164.28l20.77 -89.99 23.66 5.46 23.3 54.16c0.42,1.03 1.12,3.18 1.96,6.42 0.84,3.25 1.7,7.02 2.56,11.33 0.37,-3.89 0.74,-7.25 1.28,-10.18 0.42,-2.95 0.91,-5.62 1.43,-7.89l10.25 -44.42 23.54 5.43 -20.77 89.99 -23.54 -5.44 -23.26 -54.28c-0.52,-1.18 -1.09,-3.3 -1.97,-6.42 -0.84,-3.24 -1.69,-7.02 -2.58,-11.2 -0.37,3.89 -0.75,7.25 -1.29,10.17 -0.44,3.08 -0.9,5.63 -1.42,7.9l-10.25 44.42 -23.67 -5.46z"/>
  <path id="_12" class="fil5" d="M1142.85 175.75l7.11 -18.03 46.02 18.15c-0.23,0.6 -0.47,1.2 -0.63,1.97 -0.29,0.72 -0.71,1.8 -1.24,3.12 -5.82,14.78 -14.29,24.64 -25.32,29.73 -11.03,5.09 -23.58,4.86 -37.76,-0.73 -6.97,-2.75 -12.67,-6.24 -17.27,-10.42 -4.6,-4.17 -8.25,-9.36 -10.75,-15.35 -2.48,-5.69 -3.7,-11.73 -3.76,-18.28 -0.06,-6.55 1.18,-12.86 3.6,-18.99 2.51,-6.37 5.91,-11.83 10.21,-16.38 4.29,-4.56 9.55,-8.04 15.58,-10.66 5.99,-2.5 12.15,-3.68 18.53,-3.66 6.38,0.01 12.93,1.35 19.3,3.86 8.41,3.32 15.2,7.94 20.36,13.86 5.21,5.8 8.68,12.86 10.52,21.22l-24.15 1.73c-1.08,-4.31 -2.89,-7.8 -5.23,-10.67 -2.39,-2.75 -5.54,-4.96 -9.27,-6.43 -6.97,-2.75 -13.44,-2.53 -19.21,0.47 -5.93,3.08 -10.49,8.64 -13.71,16.82 -3.22,8.17 -3.69,15.34 -1.5,21.76 2.12,6.25 6.75,10.71 13.72,13.46 6,2.37 11.5,2.87 16.6,1.55 5.15,-1.44 8.95,-4.39 11.57,-8.91l-23.32 -9.19z"/>
  <polygon id="_13" class="fil5" points="1189.69,233.89 1235.72,153.83 1284.77,182.03 1274.66,199.61 1246.89,183.65 1238.91,197.53 1265.11,212.6 1255.26,229.73 1229.05,214.66 1221.26,228.21 1249.03,244.18 1238.73,262.09 "/>
  <path id="_14" class="fil5" d="M1254.06 269.34l57.06 -72.62 19.09 15.01 -1.94 58.92c-0.05,1.11 -0.34,3.35 -0.95,6.64 -0.62,3.3 -1.46,7.08 -2.51,11.34 1.99,-3.36 3.76,-6.24 5.49,-8.66 1.64,-2.49 3.21,-4.71 4.65,-6.54l28.17 -35.85 18.99 14.93 -57.06 72.61 -18.99 -14.92 2.02 -59.02c0.03,-1.3 0.42,-3.46 0.95,-6.65 0.62,-3.29 1.46,-7.07 2.43,-11.24 -1.99,3.37 -3.76,6.25 -5.49,8.66 -1.72,2.6 -3.21,4.71 -4.65,6.54l-28.17 35.85 -19.09 -15z"/>
  <polygon id="_15" class="fil5" points="1340.14,338.9 1403.87,272.06 1422.28,289.62 1358.55,356.46 "/>
  <polygon id="_16" class="fil5" points="1373.7,370.03 1443.5,309.56 1480.54,352.33 1465.22,365.61 1444.24,341.39 1432.14,351.88 1451.93,374.72 1436.99,387.66 1417.2,364.82 1405.39,375.05 1426.36,399.26 1410.74,412.79 "/>
  <path id="_17" class="fil5" d="M1421.77 425.31l75.27 -53.52 15.27 21.48c5.98,8.42 9.68,14.51 11.34,18.4 1.58,3.79 2.23,7.6 2.17,11.29 -0.16,4.24 -1.27,8.03 -3.48,11.83 -2.11,3.72 -5.06,6.93 -8.95,9.69 -5.79,4.12 -11.58,6.02 -17.28,5.79 -5.6,-0.29 -11.13,-2.71 -16.18,-7.36l-15.72 42.09 -16.46 -23.16 17.19 -38.22 -29.47 20.96 -13.7 -19.27zm53.38 -8.95l2.7 3.79c3.14,4.42 6.2,7.16 9.1,8.11 3,0.88 6.06,0.28 9.33,-2.04 3.78,-2.69 5.74,-5.51 5.97,-8.53 0.24,-3.02 -1.24,-6.88 -4.39,-11.3l-2.92 -4.11 -19.79 14.08z"/>
  <path id="_18" class="fil5" d="M1469.06 494.07l80.06 -46.03 12.68 22.06 -80.06 46.03 -12.68 -22.06zm123.17 -35.06l-28.87 -5.9 -4.83 -8.4 24.88 -1.04 8.82 15.34z"/>
  <path id="_19" class="fil5" d="M1534.13 541.36l10.33 22.83 23.89 -21.15c0.72,-0.6 1.97,-1.59 3.64,-2.92 1.67,-1.32 3.76,-2.97 6.38,-5.01 -2.21,0.44 -4.48,0.75 -6.58,1.13 -2.09,0.38 -4.07,0.71 -6.05,1.04l-31.61 4.08zm-45.95 -17.92l97.3 -8.98 12.98 28.72 -71.01 67.12 -10.32 -22.84 13.15 -11.04 -14.74 -32.61 -17.04 2.46 -10.32 -22.83z"/>
  <path class="fil5" d="M269.81 1388.26l44.51 -42.65 13.76 14.36 -9.04 8.66c5.63,-1.38 10.57,-1.5 14.86,-0.39 4.3,1.14 8.28,3.61 11.94,7.43 2.76,2.88 4.74,5.88 5.97,9.03 1.23,3.12 1.66,6.22 1.27,9.31 -0.36,2.6 -1.39,5.17 -3.05,7.74 -1.67,2.56 -4.63,5.86 -8.9,9.95l-25.47 24.41 -15.06 -15.72 23.84 -22.85c3.55,-3.4 5.57,-6.47 6.09,-9.18 0.5,-2.7 -0.48,-5.35 -2.93,-7.9 -3.13,-3.27 -6.61,-4.49 -10.46,-3.66 -3.84,0.8 -8.46,3.78 -13.88,8.97l-18.68 17.91 -14.77 -15.42zm113.07 65.56c3.16,-3.64 4.68,-7.36 4.58,-11.15 -0.09,-3.81 -1.82,-7.15 -5.17,-10.06 -3.35,-2.91 -6.88,-4.16 -10.63,-3.72 -3.75,0.44 -7.21,2.49 -10.39,6.16 -3.14,3.61 -4.67,7.31 -4.54,11.07 0.12,3.77 1.83,7.1 5.15,9.99 3.35,2.91 6.91,4.15 10.66,3.73 3.74,-0.39 7.2,-2.41 10.34,-6.02zm34.6 -10.71l-40.42 46.54 -15.07 -13.08 6.56 -7.56c-4.96,1.36 -9.43,1.61 -13.43,0.79 -3.99,-0.84 -7.79,-2.82 -11.42,-5.98 -6.2,-5.38 -9.2,-11.96 -8.98,-19.71 0.22,-7.76 3.62,-15.46 10.25,-23.08 6.58,-7.58 13.77,-11.92 21.53,-13.01 7.78,-1.11 14.96,1.21 21.53,6.92 3.49,3.03 5.86,6.41 7.11,10.09 1.23,3.69 1.42,7.89 0.54,12.55l6.64 -7.64 15.16 13.17zm-23.98 57.66l27.04 -37.55 -7.47 -5.38 8.99 -12.48 7.47 5.39 10.74 -14.91 17.38 12.51 -10.74 14.91 7.48 5.4 -8.98 12.47 -7.49 -5.39 -27.04 37.54 -17.38 -12.51zm119.82 6.17l-17.11 26.44c-3.78,5.85 -7.04,9.86 -9.81,12.07 -2.76,2.23 -5.97,3.7 -9.61,4.45 -3.74,0.8 -7.72,0.66 -11.87,-0.41 -4.13,-1.09 -8.52,-3.13 -13.12,-6.1 -4.58,-2.97 -8.21,-6.11 -10.88,-9.42 -2.67,-3.35 -4.45,-6.93 -5.37,-10.75 -0.85,-3.56 -0.81,-7.08 0.11,-10.53 0.93,-3.44 3.27,-8.08 7.04,-13.92l17.12 -26.45 17.42 11.27 -17.87 27.62c-2.81,4.34 -4.12,7.93 -3.94,10.8 0.21,2.87 1.9,5.32 5.11,7.4 3.24,2.1 6.2,2.67 8.83,1.7 2.65,-0.99 5.39,-3.69 8.24,-8.1l17.87 -27.62 17.84 11.55zm-18.72 57.74l27.84 -55 18.29 9.26 -6.55 12.95c4.28,-3.76 8.63,-6 13.1,-6.7 4.47,-0.7 9.02,0.13 13.67,2.48 0.76,0.39 1.51,0.79 2.26,1.24 0.76,0.45 1.52,0.93 2.26,1.45l-10.79 16.7c-0.95,-0.98 -1.95,-1.86 -3,-2.62 -1.03,-0.73 -2.08,-1.38 -3.12,-1.9 -4.72,-2.39 -9.09,-2.81 -13.12,-1.21 -4,1.6 -7.35,5.04 -10.04,10.33l-11.52 22.77 -19.28 -9.75zm105.16 13.32c1.79,-4.47 2.01,-8.49 0.67,-12.03 -1.34,-3.56 -4.07,-6.16 -8.19,-7.81 -4.12,-1.65 -7.86,-1.66 -11.26,-0.02 -3.39,1.65 -5.99,4.72 -7.79,9.22 -1.78,4.45 -2.01,8.44 -0.66,11.95 1.35,3.53 4.07,6.11 8.15,7.75 4.12,1.65 7.88,1.65 11.29,0.03 3.4,-1.6 6.01,-4.64 7.79,-9.09zm29.17 -21.47l-22.9 57.23 -18.53 -7.41 3.71 -9.29c-4.23,2.91 -8.37,4.62 -12.42,5.15 -4.05,0.51 -8.29,-0.11 -12.75,-1.89 -7.63,-3.05 -12.62,-8.28 -14.96,-15.68 -2.33,-7.4 -1.65,-15.79 2.11,-25.17 3.73,-9.32 9.09,-15.77 16.07,-19.35 6.98,-3.6 14.52,-3.77 22.6,-0.53 4.3,1.72 7.64,4.13 10.03,7.19 2.38,3.09 3.94,6.99 4.63,11.69l3.76 -9.4 18.65 7.46zm71.79 82.58l7.62 -32.75c1.21,-5.19 1.39,-8.94 0.58,-11.22 -0.84,-2.27 -2.84,-3.79 -6.01,-4.52 -3.95,-0.92 -7.04,-0.19 -9.22,2.22 -2.18,2.38 -4.28,7.83 -6.27,16.35l-5.92 25.45 -20.43 -4.76 7.62 -32.75c1.23,-5.27 1.42,-9.03 0.61,-11.26 -0.83,-2.24 -2.81,-3.73 -5.98,-4.47 -3.97,-0.92 -7.05,-0.2 -9.26,2.15 -2.21,2.33 -4.34,7.8 -6.35,16.4l-5.92 25.45 -20.55 -4.79 13.97 -60.04 20.8 4.84 -2.44 10.47c3.49,-3.66 7.09,-6.11 10.83,-7.36 3.75,-1.22 7.84,-1.34 12.26,-0.31 4.89,1.14 8.65,3.02 11.34,5.61 2.66,2.61 4.24,5.95 4.7,10.04 3.22,-3.28 6.74,-5.43 10.54,-6.51 3.8,-1.09 7.98,-1.1 12.54,-0.04 3.61,0.84 6.64,2.19 9.05,4.03 2.44,1.84 4.29,4.19 5.56,7.03 1.02,2.23 1.53,4.7 1.57,7.38 0.02,2.68 -0.63,6.87 -1.96,12.57l-0.31 1.32 -7.99 34.35 -20.98 -4.88zm69.67 6.76l5.77 -16.21c2.97,3 6.28,5.38 9.96,7.15 3.67,1.76 7.44,2.8 11.3,3.09 2.72,0.21 4.81,-0.07 6.31,-0.83 1.48,-0.77 2.29,-1.98 2.41,-3.64 0.21,-2.72 -2.48,-4.96 -8.11,-6.74 -1.84,-0.58 -3.31,-1.09 -4.42,-1.51 -6.35,-2.28 -10.89,-4.96 -13.62,-8.1 -2.7,-3.13 -3.89,-7 -3.54,-11.61 0.45,-5.98 3.06,-10.57 7.82,-13.8 4.74,-3.23 10.96,-4.56 18.62,-3.98 3.93,0.3 7.91,1.07 11.93,2.29 4,1.22 8.07,2.96 12.18,5.19l-5.64 14.57c-2.74,-2.17 -5.54,-3.87 -8.43,-5.11 -2.89,-1.24 -5.8,-1.99 -8.77,-2.21 -2.48,-0.19 -4.38,0.06 -5.68,0.73 -1.33,0.68 -2.04,1.75 -2.15,3.2 -0.16,2.21 2.54,4.27 8.1,6.2 1.28,0.45 2.22,0.79 2.87,1.01 7.33,2.71 12.36,5.64 15.08,8.78 2.73,3.11 3.89,7.14 3.51,12.11 -0.48,6.27 -3.27,11.18 -8.39,14.68 -5.13,3.51 -11.66,4.96 -19.61,4.35 -5.4,-0.41 -10.36,-1.41 -14.9,-2.99 -4.52,-1.6 -8.72,-3.8 -12.6,-6.62zm126.98 -52.26l0.97 31.49c0.22,6.95 -0.19,12.11 -1.21,15.5 -1,3.41 -2.8,6.44 -5.37,9.13 -2.62,2.79 -5.97,4.93 -9.99,6.41 -4.02,1.46 -8.79,2.27 -14.27,2.44 -5.45,0.17 -10.22,-0.35 -14.3,-1.56 -4.1,-1.23 -7.6,-3.16 -10.54,-5.78 -2.72,-2.44 -4.69,-5.36 -5.89,-8.72 -1.19,-3.36 -1.91,-8.51 -2.13,-15.46l-0.97 -31.49 20.74 -0.64 1.02 32.88c0.15,5.17 1.12,8.87 2.9,11.13 1.8,2.24 4.59,3.3 8.42,3.18 3.85,-0.12 6.61,-1.33 8.22,-3.63 1.62,-2.32 2.34,-6.1 2.18,-11.35l-1.02 -32.87 21.24 -0.66zm33.16 29.14c0.58,4.78 2.28,8.39 5.11,10.81 2.82,2.45 6.4,3.42 10.77,2.89 4.4,-0.54 7.69,-2.32 9.86,-5.36 2.17,-3.03 2.97,-6.95 2.38,-11.77 -0.58,-4.75 -2.3,-8.37 -5.15,-10.79 -2.86,-2.44 -6.48,-3.41 -10.85,-2.87 -4.36,0.53 -7.6,2.33 -9.75,5.38 -2.17,3.04 -2.95,6.95 -2.37,11.71zm-26.85 -61.04l20.59 -2.51 3.9 32c0.32,2.58 0.52,4.74 0.62,6.47 0.13,1.73 0.15,3.24 0.09,4.5 1.99,-4.67 4.49,-8.12 7.51,-10.38 3.02,-2.26 7.15,-3.7 12.36,-4.34 8.14,-0.99 15.13,1.2 20.93,6.58 5.79,5.38 9.3,12.95 10.48,22.67 1.23,10.07 -0.37,18.37 -4.75,24.95 -4.38,6.55 -10.85,10.34 -19.41,11.39 -4.22,0.51 -8.15,-0.04 -11.83,-1.67 -3.68,-1.61 -7.16,-4.31 -10.39,-8.09l1.21 9.92 -19.87 2.42 -11.44 -93.91zm77.98 3.75c-0.6,-3.24 0.06,-6.22 1.94,-8.92 1.87,-2.69 4.43,-4.35 7.68,-4.95 3.36,-0.62 6.38,-0.01 9.04,1.81 2.69,1.81 4.33,4.39 4.94,7.71 0.61,3.32 -0.01,6.36 -1.9,9.1 -1.87,2.76 -4.44,4.42 -7.72,5.02 -3.22,0.6 -6.18,-0.07 -8.95,-2.01 -2.75,-1.93 -4.44,-4.52 -5.03,-7.76zm15.73 79.34l-11.16 -60.63 21.43 -3.95 11.16 60.63 -21.43 3.95zm68.39 -55.09c-1.35,-3.26 -3.39,-5.6 -6.13,-7.04 -2.74,-1.42 -5.71,-1.69 -8.88,-0.8 -3.41,0.96 -5.86,2.64 -7.36,5.07 -1.49,2.43 -2.05,5.6 -1.66,9.51l24.03 -6.74zm23.93 6.03l-45.13 12.66c1.32,4.57 3.5,7.76 6.5,9.6 3,1.84 6.62,2.17 10.86,0.98 3.17,-0.89 5.69,-2.22 7.52,-4.03 1.85,-1.82 3,-4.05 3.48,-6.71l17.53 1.92c-0.61,5.08 -2.96,9.53 -7.04,13.33 -4.08,3.81 -9.59,6.67 -16.54,8.62 -10.35,2.9 -19.43,2.36 -27.3,-1.62 -7.85,-3.99 -13.11,-10.69 -15.74,-20.08 -2.59,-9.25 -1.62,-17.81 2.9,-25.68 4.55,-7.85 11.59,-13.14 21.14,-15.81 9.83,-2.76 18.47,-1.83 25.88,2.76 7.43,4.6 12.64,12.29 15.66,23.06l0.28 1zm47.23 -32.02c-2.62,-1.08 -4.98,-1.72 -7.11,-1.88 -2.13,-0.17 -4.21,0.11 -6.24,0.81 -4.07,1.42 -6.86,3.88 -8.33,7.41 -1.46,3.53 -1.4,7.59 0.2,12.21 1.54,4.45 4.04,7.58 7.46,9.37 3.41,1.77 7.22,1.95 11.45,0.48 2.09,-0.72 3.9,-1.81 5.44,-3.27 1.52,-1.45 2.83,-3.34 3.89,-5.65l6.17 17.82c-1.98,2.23 -4.09,4.11 -6.33,5.61 -2.22,1.52 -4.65,2.71 -7.27,3.62 -8.96,3.11 -17.22,2.75 -24.76,-1.08 -7.54,-3.82 -12.94,-10.42 -16.19,-19.81 -3.15,-9.09 -2.9,-17.54 0.76,-25.29 3.66,-7.75 9.94,-13.17 18.82,-16.24 2.96,-1.03 5.73,-1.66 8.31,-1.91 2.59,-0.24 5.15,-0.11 7.72,0.43l6.01 17.37zm-7.75 -39.25c-1.36,-3 -1.43,-6.05 -0.26,-9.12 1.17,-3.06 3.25,-5.29 6.27,-6.65 3.11,-1.41 6.19,-1.54 9.21,-0.42 3.04,1.12 5.25,3.23 6.65,6.3 1.39,3.08 1.51,6.18 0.33,9.29 -1.14,3.13 -3.24,5.36 -6.28,6.73 -2.98,1.35 -6.01,1.42 -9.17,0.2 -3.14,-1.22 -5.39,-3.33 -6.75,-6.33zm34.34 73.23l-25.41 -56.16 19.86 -8.98 25.4 56.16 -19.85 8.98zm38.14 -16.99l-20.74 -41.36 -8.23 4.13 -6.9 -13.74 8.23 -4.13 -8.23 -16.43 19.14 -9.6 8.24 16.43 8.25 -4.14 6.89 13.74 -8.25 4.14 20.74 41.36 -19.14 9.6zm93.26 -89.03c-2.6,-4.04 -5.75,-6.55 -9.42,-7.51 -3.67,-0.98 -7.37,-0.26 -11.1,2.14 -3.74,2.4 -5.92,5.44 -6.54,9.16 -0.63,3.73 0.36,7.62 2.99,11.7 2.59,4.03 5.71,6.53 9.36,7.46 3.65,0.94 7.33,0.23 11.03,-2.14 3.73,-2.41 5.92,-5.47 6.57,-9.19 0.67,-3.7 -0.29,-7.59 -2.89,-11.62zm-0.58 -36.21l33.35 51.84 -16.78 10.8 -5.41 -8.41c-0.09,5.14 -1.1,9.5 -3.01,13.11 -1.93,3.59 -4.89,6.69 -8.93,9.29 -6.91,4.44 -14.07,5.48 -21.45,3.1 -7.38,-2.39 -13.82,-7.81 -19.28,-16.31 -5.44,-8.44 -7.58,-16.55 -6.46,-24.31 1.12,-7.78 5.35,-14.02 12.67,-18.73 3.89,-2.5 7.8,-3.83 11.68,-3.99 3.89,-0.15 7.97,0.84 12.21,2.99l-5.48 -8.51 16.89 -10.87zm46.45 40.84l-58.53 -74.33 17.13 -13.48 58.52 74.33 -17.12 13.48zm-23.04 -84.93c-2.14,-2.5 -3.07,-5.4 -2.81,-8.68 0.26,-3.27 1.64,-5.99 4.15,-8.15 2.59,-2.23 5.5,-3.22 8.72,-2.99 3.23,0.22 5.95,1.62 8.15,4.18 2.2,2.56 3.19,5.5 2.93,8.82 -0.22,3.33 -1.61,6.06 -4.14,8.23 -2.48,2.13 -5.37,3.05 -8.75,2.76 -3.34,-0.28 -6.1,-1.67 -8.25,-4.17zm53.53 60.63l-40.16 -46.76 16.53 -14.2 40.17 46.76 -16.54 14.2zm-27.39 -83.29c-2.28,-2.37 -3.37,-5.22 -3.28,-8.51 0.08,-3.28 1.31,-6.07 3.7,-8.36 2.46,-2.37 5.32,-3.51 8.54,-3.46 3.24,0.04 6.03,1.29 8.37,3.73 2.33,2.44 3.48,5.32 3.41,8.65 -0.04,3.33 -1.28,6.13 -3.69,8.44 -2.36,2.26 -5.2,3.33 -8.58,3.23 -3.36,-0.1 -6.19,-1.34 -8.47,-3.72zm56.75 57.63l-42.65 -44.51 15.73 -15.07 42.66 44.5 -15.74 15.08zm19.82 -26.13l-8.95 -14.7c4.2,-0.41 8.14,-1.48 11.83,-3.23 3.68,-1.74 6.86,-4.01 9.52,-6.82 1.88,-1.98 2.98,-3.78 3.33,-5.43 0.34,-1.63 -0.1,-3.02 -1.31,-4.16 -1.98,-1.88 -5.41,-1.19 -10.34,2.05 -1.61,1.06 -2.93,1.88 -3.96,2.48 -5.77,3.49 -10.71,5.33 -14.86,5.47 -4.14,0.13 -7.9,-1.39 -11.26,-4.56 -4.36,-4.13 -6.28,-9.04 -5.79,-14.77 0.48,-5.72 3.37,-11.38 8.66,-16.97 2.7,-2.86 5.8,-5.47 9.29,-7.82 3.47,-2.33 7.37,-4.4 11.7,-6.19l7.76 13.57c-3.41,0.76 -6.49,1.86 -9.28,3.32 -2.79,1.46 -5.2,3.25 -7.25,5.42 -1.7,1.8 -2.7,3.43 -3,4.87 -0.32,1.45 0.07,2.68 1.13,3.68 1.61,1.52 4.91,0.72 9.91,-2.38 1.16,-0.71 2.02,-1.22 2.6,-1.59 6.72,-3.99 12.16,-6.04 16.32,-6.19 4.13,-0.15 8,1.49 11.61,4.92 4.57,4.32 6.62,9.58 6.11,15.76 -0.5,6.2 -3.49,12.18 -8.98,17.97 -3.72,3.94 -7.62,7.16 -11.71,9.69 -4.08,2.5 -8.44,4.37 -13.08,5.61z"/>
  <g id="_105553476434272">
   <path class="fil1" d="M685.09 1313.94l-34.93 39.14 -164.28 0 0 -726.76 65.78 0 1.04 10.66c25.24,258.94 114.72,504.66 337.37,655.37l31.9 21.59 -236.88 0z"/>
  </g>
  <path class="fil6" d="M497.69 638.13l43.26 0c30.07,308.55 144.27,529.82 342.5,664l-203.65 0 -34.93 39.14 -147.18 0 0 -703.14 0 0z"/>
 </g>
</svg>
